<svg width="25" height="25" viewBox="0 0 25 25" fill="none" xmlns="http://www.w3.org/2000/svg">
<path fill-rule="evenodd" clip-rule="evenodd" d="M6 0C5.44772 0 5 0.447715 5 1C5 1.55228 5.44772 2 6 2H18C18.5523 2 19 1.55228 19 1C19 0.447715 18.5523 0 18 0H6ZM2 6C2 5.44772 2.44772 5 3 5H21C21.5523 5 22 5.44772 22 6C22 6.55228 21.5523 7 21 7H3C2.44772 7 2 6.55228 2 6ZM0 15C0 12.2386 2.23858 10 5 10H20C22.7614 10 25 12.2386 25 15V20C25 22.7614 22.7614 25 20 25H5C2.23858 25 0 22.7614 0 20V15Z" fill="#4D4D4D"/>
</svg>
