<svg width="22" height="22" viewBox="0 0 22 22" fill="none" xmlns="http://www.w3.org/2000/svg">
<path fill-rule="evenodd" clip-rule="evenodd" d="M22 11C22 17.0751 17.0751 22 11 22C4.92487 22 0 17.0751 0 11C0 4.92487 4.92487 0 11 0C17.0751 0 22 4.92487 22 11ZM19.8906 11C19.8906 15.9706 15.8612 20 10.8906 20C5.92006 20 1.89062 15.9706 1.89062 11C1.89062 6.02944 5.92006 2 10.8906 2C15.8612 2 19.8906 6.02944 19.8906 11ZM11 7C11 6.44772 10.5523 6 10 6C9.44771 6 9 6.44772 9 7V12C9 13.1046 9.89543 14 11 14H16C16.5523 14 17 13.5523 17 13C17 12.4477 16.5523 12 16 12H11V7Z" fill="white"/>
</svg>
